<svg width="264" height="400" viewBox="0 0 264 400" fill="none" xmlns="http://www.w3.org/2000/svg">
<g opacity="0.3" clip-path="url(#clip0_2085_7795)">
<g clip-path="url(#clip1_2085_7795)">
<g clip-path="url(#clip2_2085_7795)">
<path d="M175.603 31.2422H208.542V64.1642H175.603V31.2422Z" fill="#1C1C1C" stroke="#2B2B2B" stroke-width="0.67" stroke-miterlimit="10"/>
<path d="M10.909 64.1641H43.848V97.0861H10.909V64.1641Z" fill="#1C1C1C" stroke="#2B2B2B" stroke-width="0.67" stroke-miterlimit="10"/>
<path d="M109.726 97.0859H142.664V130.008H109.726V97.0859Z" fill="#1C1C1C" stroke="#2B2B2B" stroke-width="0.67" stroke-miterlimit="10"/>
<path d="M-22.03 130.008H10.909V162.93H-22.03V130.008Z" fill="#1C1C1C" stroke="#2B2B2B" stroke-width="0.67" stroke-miterlimit="10"/>
<path d="M142.664 162.931H175.603V195.852H142.664V162.931Z" fill="#1C1C1C" stroke="#2B2B2B" stroke-width="0.67" stroke-miterlimit="10"/>
<path d="M76.787 195.852H109.726V228.774H76.787V195.852Z" fill="#1C1C1C" stroke="#2B2B2B" stroke-width="0.67" stroke-miterlimit="10"/>
<path d="M43.848 261.695H76.787V294.617H43.848V261.695Z" fill="#1C1C1C" stroke="#2B2B2B" stroke-width="0.67" stroke-miterlimit="10"/>
<path d="M175.603 261.695H208.542V294.617H175.603V261.695Z" fill="#1C1C1C" stroke="#2B2B2B" stroke-width="0.67" stroke-miterlimit="10"/>
<path d="M109.726 327.539H142.664V360.461H109.726V327.539Z" fill="#1C1C1C" stroke="#2B2B2B" stroke-width="0.67" stroke-miterlimit="10"/>
<path d="M-680.808 -1.67969H-713.747V31.2423M-680.808 -1.67969V31.2423M-680.808 -1.67969H-647.869M-680.808 31.2423H-713.747M-680.808 31.2423H-647.869M-680.808 31.2423V64.1643M-713.747 31.2423V64.1643H-680.808M-647.869 -1.67969V31.2423M-647.869 -1.67969H-614.93M-647.869 31.2423H-614.93M-647.869 31.2423V64.1643M-614.93 -1.67969V31.2423M-614.93 -1.67969H-581.991M-614.93 31.2423H-581.991M-614.93 31.2423V64.1643M-581.991 -1.67969V31.2423M-581.991 -1.67969H-549.053M-581.991 31.2423H-549.053M-581.991 31.2423V64.1643M-549.053 -1.67969V31.2423M-549.053 -1.67969H-516.114M-549.053 31.2423H-516.114M-549.053 31.2423V64.1643M-516.114 -1.67969V31.2423M-516.114 -1.67969H-483.175M-516.114 31.2423H-483.175M-516.114 31.2423V64.1643M-483.175 -1.67969V31.2423M-483.175 -1.67969H-450.236M-483.175 31.2423H-450.236M-483.175 31.2423V64.1643M-450.236 -1.67969V31.2423M-450.236 -1.67969H-417.297M-450.236 31.2423H-417.297M-450.236 31.2423V64.1643M-417.297 -1.67969V31.2423M-417.297 -1.67969H-384.358M-417.297 31.2423H-384.358M-417.297 31.2423V64.1643M-384.358 -1.67969V31.2423M-384.358 -1.67969H-351.419M-384.358 31.2423H-351.419M-384.358 31.2423V64.1643M-351.419 -1.67969V31.2423M-351.419 -1.67969H-318.48M-351.419 31.2423H-318.48M-351.419 31.2423V64.1643M-318.48 -1.67969V31.2423M-318.48 -1.67969H-285.541M-318.48 31.2423H-285.541M-318.48 31.2423V64.1643M-285.541 -1.67969V31.2423M-285.541 -1.67969H-252.603M-285.541 31.2423H-252.603M-285.541 31.2423V64.1643M-252.603 -1.67969V31.2423M-252.603 -1.67969H-219.664M-252.603 31.2423H-219.664M-252.603 31.2423V64.1643M-219.664 -1.67969V31.2423M-219.664 -1.67969H-186.725M-219.664 31.2423H-186.725M-219.664 31.2423V64.1643M-186.725 -1.67969V31.2423M-186.725 -1.67969H-153.786M-186.725 31.2423H-153.786M-186.725 31.2423V64.1643M-153.786 -1.67969V31.2423M-153.786 -1.67969H-120.847M-153.786 31.2423H-120.847M-153.786 31.2423V64.1643M-120.847 -1.67969V31.2423M-120.847 -1.67969H-87.908M-120.847 31.2423H-87.908M-120.847 31.2423V64.1643M-87.908 -1.67969V31.2423M-87.908 -1.67969H-54.969M-87.908 31.2423H-54.969M-87.908 31.2423V64.1643M-54.969 -1.67969V31.2423M-54.969 -1.67969H-22.03M-54.969 31.2423H-22.03M-54.969 31.2423V64.1643M-22.03 -1.67969V31.2423M-22.03 -1.67969H10.909M-22.03 31.2423H10.909M-22.03 31.2423V64.1643M10.909 -1.67969V31.2423M10.909 -1.67969H43.847M10.909 31.2423H43.847M10.909 31.2423V64.1643M43.847 -1.67969V31.2423M43.847 -1.67969H76.786M43.847 31.2423H76.786M43.847 31.2423V64.1643M76.786 -1.67969V31.2423M76.786 -1.67969H109.725M76.786 31.2423H109.725M76.786 31.2423V64.1643M109.725 -1.67969V31.2423M109.725 -1.67969H142.664M109.725 31.2423H142.664M109.725 31.2423V64.1643M142.664 -1.67969V31.2423M142.664 -1.67969H175.603M142.664 31.2423H175.603M142.664 31.2423V64.1643M175.603 -1.67969V31.2423M175.603 -1.67969H208.542M175.603 31.2423H208.542M175.603 31.2423V64.1643H142.664M208.542 -1.67969V31.2423M208.542 -1.67969H241.481M208.542 31.2423H241.481M241.481 -1.67969V31.2423M241.481 -1.67969H274.42V31.2423H241.481M-680.808 64.1643H-647.869M-647.869 64.1643H-614.93M-614.93 64.1643H-581.991M-581.991 64.1643H-549.053M-549.053 64.1643H-516.114M-516.114 64.1643H-483.175M-483.175 64.1643H-450.236M-450.236 64.1643H-417.297M-417.297 64.1643H-384.358M-384.358 64.1643H-351.419M-351.419 64.1643H-318.48M-318.48 64.1643H-285.541M-285.541 64.1643H-252.603M-252.603 64.1643H-219.664M-219.664 64.1643H-186.725M-186.725 64.1643H-153.786M-153.786 64.1643H-120.847M-120.847 64.1643H-87.908M-87.908 64.1643H-54.969M-54.969 64.1643H-22.03M-22.03 64.1643H10.909M10.909 64.1643H43.847M43.847 64.1643H76.786M76.786 64.1643H109.725M109.725 64.1643H142.664" stroke="#2B2B2B" stroke-width="0.67" stroke-miterlimit="10"/>
<path d="M241.481 31.2422H208.542V64.1642H241.481M241.481 31.2422V64.1642M241.481 31.2422H274.42V64.1642H241.481M-680.808 64.1642H-713.747V97.0862H-680.808M-680.808 64.1642V97.0862M-680.808 64.1642H-647.869M-680.808 97.0862H-647.869M-647.869 64.1642V97.0862M-647.869 64.1642H-614.93M-647.869 97.0862H-614.93M-614.93 64.1642V97.0862M-614.93 64.1642H-581.991M-614.93 97.0862H-581.991M-581.991 64.1642V97.0862M-581.991 64.1642H-549.053M-581.991 97.0862H-549.053M-549.053 64.1642V97.0862M-549.053 64.1642H-516.114M-549.053 97.0862H-516.114M-516.114 64.1642V97.0862M-516.114 64.1642H-483.175M-516.114 97.0862H-483.175M-483.175 64.1642V97.0862M-483.175 64.1642H-450.236M-483.175 97.0862H-450.236M-450.236 64.1642V97.0862M-450.236 64.1642H-417.297M-450.236 97.0862H-417.297M-417.297 64.1642V97.0862M-417.297 64.1642H-384.358M-417.297 97.0862H-384.358M-384.358 64.1642V97.0862M-384.358 64.1642H-351.419M-384.358 97.0862H-351.419M-351.419 64.1642V97.0862M-351.419 64.1642H-318.48M-351.419 97.0862H-318.48M-318.48 64.1642V97.0862M-318.48 64.1642H-285.541M-318.48 97.0862H-285.541M-285.541 64.1642V97.0862M-285.541 64.1642H-252.603M-285.541 97.0862H-252.603M-252.603 64.1642V97.0862M-252.603 64.1642H-219.664M-252.603 97.0862H-219.664M-219.664 64.1642V97.0862M-219.664 64.1642H-186.725M-219.664 97.0862H-186.725M-186.725 64.1642V97.0862M-186.725 64.1642H-153.786M-186.725 97.0862H-153.786M-153.786 64.1642V97.0862M-153.786 64.1642H-120.847M-153.786 97.0862H-120.847M-120.847 64.1642V97.0862M-120.847 64.1642H-87.908M-120.847 97.0862H-87.908M-87.908 64.1642V97.0862M-87.908 64.1642H-54.969M-87.908 97.0862H-54.969M-54.969 64.1642V97.0862M-54.969 64.1642H-22.03M-54.969 97.0862H-22.03M-22.03 64.1642V97.0862M-22.03 64.1642H10.909V97.0862H-22.03" stroke="#2B2B2B" stroke-width="0.67" stroke-miterlimit="10"/>
<path d="M76.786 64.1641H43.847V97.0861M76.786 64.1641V97.0861M76.786 64.1641H109.725M76.786 97.0861H43.847M76.786 97.0861H109.725M76.786 97.0861V130.008M43.847 97.0861H10.909M43.847 97.0861V130.008M109.725 64.1641V97.0861M109.725 64.1641H142.664M109.725 97.0861H142.664M109.725 97.0861V130.008H76.786M142.664 64.1641V97.0861M142.664 64.1641H175.603M142.664 97.0861H175.603M175.603 64.1641V97.0861M175.603 64.1641H208.542M175.603 97.0861H208.542M208.542 64.1641V97.0861M208.542 64.1641H241.481M208.542 97.0861H241.481M241.481 64.1641V97.0861M241.481 64.1641H274.42V97.0861H241.481M-680.808 97.0861H-713.747V130.008H-680.808M-680.808 97.0861V130.008M-680.808 97.0861H-647.869M-680.808 130.008H-647.869M-647.869 97.0861V130.008M-647.869 97.0861H-614.93M-647.869 130.008H-614.93M-614.93 97.0861V130.008M-614.93 97.0861H-581.991M-614.93 130.008H-581.991M-581.991 97.0861V130.008M-581.991 97.0861H-549.053M-581.991 130.008H-549.053M-549.053 97.0861V130.008M-549.053 97.0861H-516.114M-549.053 130.008H-516.114M-516.114 97.0861V130.008M-516.114 97.0861H-483.175M-516.114 130.008H-483.175M-483.175 97.0861V130.008M-483.175 97.0861H-450.236M-483.175 130.008H-450.236M-450.236 97.0861V130.008M-450.236 97.0861H-417.297M-450.236 130.008H-417.297M-417.297 97.0861V130.008M-417.297 97.0861H-384.358M-417.297 130.008H-384.358M-384.358 97.0861V130.008M-384.358 97.0861H-351.419M-384.358 130.008H-351.419M-351.419 97.0861V130.008M-351.419 97.0861H-318.48M-351.419 130.008H-318.48M-318.48 97.0861V130.008M-318.48 97.0861H-285.541M-318.48 130.008H-285.541M-285.541 97.0861V130.008M-285.541 97.0861H-252.603M-285.541 130.008H-252.603M-252.603 97.0861V130.008M-252.603 97.0861H-219.664M-252.603 130.008H-219.664M-219.664 97.0861V130.008M-219.664 97.0861H-186.725M-219.664 130.008H-186.725M-186.725 97.0861V130.008M-186.725 97.0861H-153.786M-186.725 130.008H-153.786M-153.786 97.0861V130.008M-153.786 97.0861H-120.847M-153.786 130.008H-120.847M-120.847 97.0861V130.008M-120.847 97.0861H-87.908M-120.847 130.008H-87.908M-87.908 97.0861V130.008M-87.908 97.0861H-54.969M-87.908 130.008H-54.969M-54.969 97.0861V130.008M-54.969 97.0861H-22.03M-54.969 130.008H-22.03M-22.03 97.0861V130.008M-22.03 97.0861H10.909M-22.03 130.008H10.909M10.909 97.0861V130.008M10.909 130.008H43.847M43.847 130.008H76.786" stroke="#2B2B2B" stroke-width="0.67" stroke-miterlimit="10"/>
<path d="M175.603 97.0859H142.664V130.008H175.603M175.603 97.0859V130.008M175.603 97.0859H208.542M175.603 130.008H208.542M208.542 97.0859V130.008M208.542 97.0859H241.481M208.542 130.008H241.481M241.481 97.0859V130.008M241.481 97.0859H274.42V130.008H241.481M-680.808 130.008H-713.747V162.929H-680.808M-680.808 130.008V162.929M-680.808 130.008H-647.869M-680.808 162.929H-647.869M-647.869 130.008V162.929M-647.869 130.008H-614.93M-647.869 162.929H-614.93M-614.93 130.008V162.929M-614.93 130.008H-581.991M-614.93 162.929H-581.991M-581.991 130.008V162.929M-581.991 130.008H-549.053M-581.991 162.929H-549.053M-549.053 130.008V162.929M-549.053 130.008H-516.114M-549.053 162.929H-516.114M-516.114 130.008V162.929M-516.114 130.008H-483.175M-516.114 162.929H-483.175M-483.175 130.008V162.929M-483.175 130.008H-450.236M-483.175 162.929H-450.236M-450.236 130.008V162.929M-450.236 130.008H-417.297M-450.236 162.929H-417.297M-417.297 130.008V162.929M-417.297 130.008H-384.358M-417.297 162.929H-384.358M-384.358 130.008V162.929M-384.358 130.008H-351.419M-384.358 162.929H-351.419M-351.419 130.008V162.929M-351.419 130.008H-318.48M-351.419 162.929H-318.48M-318.48 130.008V162.929M-318.48 130.008H-285.541M-318.48 162.929H-285.541M-285.541 130.008V162.929M-285.541 130.008H-252.603M-285.541 162.929H-252.603M-252.603 130.008V162.929M-252.603 130.008H-219.664M-252.603 162.929H-219.664M-219.664 130.008V162.929M-219.664 130.008H-186.725M-219.664 162.929H-186.725M-186.725 130.008V162.929M-186.725 130.008H-153.786M-186.725 162.929H-153.786M-153.786 130.008V162.929M-153.786 130.008H-120.847M-153.786 162.929H-120.847M-120.847 130.008V162.929M-120.847 130.008H-87.908M-120.847 162.929H-87.908M-87.908 130.008V162.929M-87.908 130.008H-54.969M-87.908 162.929H-54.969M-54.969 130.008V162.929M-54.969 130.008H-22.03V162.929H-54.969" stroke="#2B2B2B" stroke-width="0.67" stroke-miterlimit="10"/>
<path d="M43.847 130.009H10.909V162.93M43.847 130.009V162.93M43.847 130.009H76.786M43.847 162.93H10.909M43.847 162.93H76.786M43.847 162.93V195.852M10.909 162.93H-22.03M10.909 162.93V195.852M76.786 130.009V162.93M76.786 130.009H109.725M76.786 162.93H109.725M76.786 162.93V195.852M109.725 130.009V162.93M109.725 130.009H142.664M109.725 162.93H142.664M109.725 162.93V195.852M142.664 130.009V162.93M142.664 130.009H175.603M142.664 162.93H175.603M142.664 162.93V195.852H109.725M175.603 130.009V162.93M175.603 130.009H208.542M175.603 162.93H208.542M208.542 130.009V162.93M208.542 130.009H241.481M208.542 162.93H241.481M241.481 130.009V162.93M241.481 130.009H274.42V162.93H241.481M-680.808 162.93H-713.747V195.852H-680.808M-680.808 162.93V195.852M-680.808 162.93H-647.869M-680.808 195.852H-647.869M-647.869 162.93V195.852M-647.869 162.93H-614.93M-647.869 195.852H-614.93M-614.93 162.93V195.852M-614.93 162.93H-581.991M-614.93 195.852H-581.991M-581.991 162.93V195.852M-581.991 162.93H-549.053M-581.991 195.852H-549.053M-549.053 162.93V195.852M-549.053 162.93H-516.114M-549.053 195.852H-516.114M-516.114 162.93V195.852M-516.114 162.93H-483.175M-516.114 195.852H-483.175M-483.175 162.93V195.852M-483.175 162.93H-450.236M-483.175 195.852H-450.236M-450.236 162.93V195.852M-450.236 162.93H-417.297M-450.236 195.852H-417.297M-417.297 162.93V195.852M-417.297 162.93H-384.358M-417.297 195.852H-384.358M-384.358 162.93V195.852M-384.358 162.93H-351.419M-384.358 195.852H-351.419M-351.419 162.93V195.852M-351.419 162.93H-318.48M-351.419 195.852H-318.48M-318.48 162.93V195.852M-318.48 162.93H-285.541M-318.48 195.852H-285.541M-285.541 162.93V195.852M-285.541 162.93H-252.603M-285.541 195.852H-252.603M-252.603 162.93V195.852M-252.603 162.93H-219.664M-252.603 195.852H-219.664M-219.664 162.93V195.852M-219.664 162.93H-186.725M-219.664 195.852H-186.725M-186.725 162.93V195.852M-186.725 162.93H-153.786M-186.725 195.852H-153.786M-153.786 162.93V195.852M-153.786 162.93H-120.847M-153.786 195.852H-120.847M-120.847 162.93V195.852M-120.847 162.93H-87.908M-120.847 195.852H-87.908M-87.908 162.93V195.852M-87.908 162.93H-54.969M-87.908 195.852H-54.969M-54.969 162.93V195.852M-54.969 162.93H-22.03M-54.969 195.852H-22.03M-22.03 162.93V195.852M-22.03 195.852H10.909M10.909 195.852H43.847M43.847 195.852H76.786M76.786 195.852H109.725" stroke="#2B2B2B" stroke-width="0.67" stroke-miterlimit="10"/>
<path d="M208.542 162.93H175.603V195.852H208.542M208.542 162.93V195.852M208.542 162.93H241.481M208.542 195.852H241.481M241.481 162.93V195.852M241.481 162.93H274.42V195.852H241.481M-680.808 195.852H-713.747V228.774H-680.808M-680.808 195.852V228.774M-680.808 195.852H-647.869M-680.808 228.774H-647.869M-647.869 195.852V228.774M-647.869 195.852H-614.93M-647.869 228.774H-614.93M-614.93 195.852V228.774M-614.93 195.852H-581.991M-614.93 228.774H-581.991M-581.991 195.852V228.774M-581.991 195.852H-549.053M-581.991 228.774H-549.053M-549.053 195.852V228.774M-549.053 195.852H-516.114M-549.053 228.774H-516.114M-516.114 195.852V228.774M-516.114 195.852H-483.175M-516.114 228.774H-483.175M-483.175 195.852V228.774M-483.175 195.852H-450.236M-483.175 228.774H-450.236M-450.236 195.852V228.774M-450.236 195.852H-417.297M-450.236 228.774H-417.297M-417.297 195.852V228.774M-417.297 195.852H-384.358M-417.297 228.774H-384.358M-384.358 195.852V228.774M-384.358 195.852H-351.419M-384.358 228.774H-351.419M-351.419 195.852V228.774M-351.419 195.852H-318.48M-351.419 228.774H-318.48M-318.48 195.852V228.774M-318.48 195.852H-285.541M-318.48 228.774H-285.541M-285.541 195.852V228.774M-285.541 195.852H-252.603M-285.541 228.774H-252.603M-252.603 195.852V228.774M-252.603 195.852H-219.664M-252.603 228.774H-219.664M-219.664 195.852V228.774M-219.664 195.852H-186.725M-219.664 228.774H-186.725M-186.725 195.852V228.774M-186.725 195.852H-153.786M-186.725 228.774H-153.786M-153.786 195.852V228.774M-153.786 195.852H-120.847M-153.786 228.774H-120.847M-120.847 195.852V228.774M-120.847 195.852H-87.908M-120.847 228.774H-87.908M-87.908 195.852V228.774M-87.908 195.852H-54.969M-87.908 228.774H-54.969M-54.969 195.852V228.774M-54.969 195.852H-22.03M-54.969 228.774H-22.03M-22.03 195.852V228.774M-22.03 195.852H10.909M-22.03 228.774H10.909M10.909 195.852V228.774M10.909 195.852H43.847M10.909 228.774H43.847M43.847 195.852V228.774M43.847 195.852H76.786V228.774H43.847" stroke="#2B2B2B" stroke-width="0.67" stroke-miterlimit="10"/>
<path d="M142.664 195.852H109.725V228.774M142.664 195.852V228.774M142.664 195.852H175.603M142.664 228.774H109.725M142.664 228.774H175.603M142.664 228.774V261.696M109.725 228.774H76.786M109.725 228.774V261.696M175.603 195.852V228.774M175.603 195.852H208.542M175.603 228.774H208.542M175.603 228.774V261.696M208.542 195.852V228.774M208.542 195.852H241.481M208.542 228.774H241.481M208.542 228.774V261.696M241.481 195.852V228.774M241.481 195.852H274.42V228.774M241.481 228.774H274.42M241.481 228.774V261.696M274.42 228.774V261.696H241.481M-680.808 228.774H-713.747V261.696M-680.808 228.774V261.696M-680.808 228.774H-647.869M-680.808 261.696H-713.747M-680.808 261.696H-647.869M-680.808 261.696V294.618M-713.747 261.696V294.618H-680.808M-647.869 228.774V261.696M-647.869 228.774H-614.93M-647.869 261.696H-614.93M-647.869 261.696V294.618M-614.93 228.774V261.696M-614.93 228.774H-581.991M-614.93 261.696H-581.991M-614.93 261.696V294.618M-581.991 228.774V261.696M-581.991 228.774H-549.053M-581.991 261.696H-549.053M-581.991 261.696V294.618M-549.053 228.774V261.696M-549.053 228.774H-516.114M-549.053 261.696H-516.114M-549.053 261.696V294.618M-516.114 228.774V261.696M-516.114 228.774H-483.175M-516.114 261.696H-483.175M-516.114 261.696V294.618M-483.175 228.774V261.696M-483.175 228.774H-450.236M-483.175 261.696H-450.236M-483.175 261.696V294.618M-450.236 228.774V261.696M-450.236 228.774H-417.297M-450.236 261.696H-417.297M-450.236 261.696V294.618M-417.297 228.774V261.696M-417.297 228.774H-384.358M-417.297 261.696H-384.358M-417.297 261.696V294.618M-384.358 228.774V261.696M-384.358 228.774H-351.419M-384.358 261.696H-351.419M-384.358 261.696V294.618M-351.419 228.774V261.696M-351.419 228.774H-318.48M-351.419 261.696H-318.48M-351.419 261.696V294.618M-318.48 228.774V261.696M-318.48 228.774H-285.541M-318.48 261.696H-285.541M-318.48 261.696V294.618M-285.541 228.774V261.696M-285.541 228.774H-252.603M-285.541 261.696H-252.603M-285.541 261.696V294.618M-252.603 228.774V261.696M-252.603 228.774H-219.664M-252.603 261.696H-219.664M-252.603 261.696V294.618M-219.664 228.774V261.696M-219.664 228.774H-186.725M-219.664 261.696H-186.725M-219.664 261.696V294.618M-186.725 228.774V261.696M-186.725 228.774H-153.786M-186.725 261.696H-153.786M-186.725 261.696V294.618M-153.786 228.774V261.696M-153.786 228.774H-120.847M-153.786 261.696H-120.847M-153.786 261.696V294.618M-120.847 228.774V261.696M-120.847 228.774H-87.908M-120.847 261.696H-87.908M-120.847 261.696V294.618M-87.908 228.774V261.696M-87.908 228.774H-54.969M-87.908 261.696H-54.969M-87.908 261.696V294.618M-54.969 228.774V261.696M-54.969 228.774H-22.03M-54.969 261.696H-22.03M-54.969 261.696V294.618M-22.03 228.774V261.696M-22.03 228.774H10.909M-22.03 261.696H10.909M-22.03 261.696V294.618M10.909 228.774V261.696M10.909 228.774H43.847M10.909 261.696H43.847M10.909 261.696V294.618M43.847 228.774V261.696M43.847 228.774H76.786M43.847 261.696H76.786M43.847 261.696V294.618H10.909M76.786 228.774V261.696M76.786 261.696H109.725M109.725 261.696H142.664M142.664 261.696H175.603M175.603 261.696H208.542M208.542 261.696H241.481M-680.808 294.618H-647.869M-647.869 294.618H-614.93M-614.93 294.618H-581.991M-581.991 294.618H-549.053M-549.053 294.618H-516.114M-516.114 294.618H-483.175M-483.175 294.618H-450.236M-450.236 294.618H-417.297M-417.297 294.618H-384.358M-384.358 294.618H-351.419M-351.419 294.618H-318.48M-318.48 294.618H-285.541M-285.541 294.618H-252.603M-252.603 294.618H-219.664M-219.664 294.618H-186.725M-186.725 294.618H-153.786M-153.786 294.618H-120.847M-120.847 294.618H-87.908M-87.908 294.618H-54.969M-54.969 294.618H-22.03M-22.03 294.618H10.909" stroke="#2B2B2B" stroke-width="0.67" stroke-miterlimit="10"/>
<path d="M109.725 261.695H76.786V294.617H109.725M109.725 261.695V294.617M109.725 261.695H142.664M109.725 294.617H142.664M142.664 261.695V294.617M142.664 261.695H175.603V294.617H142.664" stroke="#2B2B2B" stroke-width="0.67" stroke-miterlimit="10"/>
<path d="M241.481 261.695H208.542V294.617M241.481 261.695V294.617M241.481 261.695H274.42V294.617M241.481 294.617H208.542M241.481 294.617H274.42M241.481 294.617V327.539M208.542 294.617H175.603M208.542 294.617V327.539M274.42 294.617V327.539H241.481M-680.808 294.617H-713.747V327.539M-680.808 294.617V327.539M-680.808 294.617H-647.869M-680.808 327.539H-713.747M-680.808 327.539H-647.869M-680.808 327.539V360.461M-713.747 327.539V360.461H-680.808M-647.869 294.617V327.539M-647.869 294.617H-614.93M-647.869 327.539H-614.93M-647.869 327.539V360.461M-614.93 294.617V327.539M-614.93 294.617H-581.991M-614.93 327.539H-581.991M-614.93 327.539V360.461M-581.991 294.617V327.539M-581.991 294.617H-549.053M-581.991 327.539H-549.053M-581.991 327.539V360.461M-549.053 294.617V327.539M-549.053 294.617H-516.114M-549.053 327.539H-516.114M-549.053 327.539V360.461M-516.114 294.617V327.539M-516.114 294.617H-483.175M-516.114 327.539H-483.175M-516.114 327.539V360.461M-483.175 294.617V327.539M-483.175 294.617H-450.236M-483.175 327.539H-450.236M-483.175 327.539V360.461M-450.236 294.617V327.539M-450.236 294.617H-417.297M-450.236 327.539H-417.297M-450.236 327.539V360.461M-417.297 294.617V327.539M-417.297 294.617H-384.358M-417.297 327.539H-384.358M-417.297 327.539V360.461M-384.358 294.617V327.539M-384.358 294.617H-351.419M-384.358 327.539H-351.419M-384.358 327.539V360.461M-351.419 294.617V327.539M-351.419 294.617H-318.48M-351.419 327.539H-318.48M-351.419 327.539V360.461M-318.48 294.617V327.539M-318.48 294.617H-285.541M-318.48 327.539H-285.541M-318.48 327.539V360.461M-285.541 294.617V327.539M-285.541 294.617H-252.603M-285.541 327.539H-252.603M-285.541 327.539V360.461M-252.603 294.617V327.539M-252.603 294.617H-219.664M-252.603 327.539H-219.664M-252.603 327.539V360.461M-219.664 294.617V327.539M-219.664 294.617H-186.725M-219.664 327.539H-186.725M-219.664 327.539V360.461M-186.725 294.617V327.539M-186.725 294.617H-153.786M-186.725 327.539H-153.786M-186.725 327.539V360.461M-153.786 294.617V327.539M-153.786 294.617H-120.847M-153.786 327.539H-120.847M-153.786 327.539V360.461M-120.847 294.617V327.539M-120.847 294.617H-87.908M-120.847 327.539H-87.908M-120.847 327.539V360.461M-87.908 294.617V327.539M-87.908 294.617H-54.969M-87.908 327.539H-54.969M-87.908 327.539V360.461M-54.969 294.617V327.539M-54.969 294.617H-22.03M-54.969 327.539H-22.03M-54.969 327.539V360.461M-22.03 294.617V327.539M-22.03 294.617H10.909M-22.03 327.539H10.909M-22.03 327.539V360.461M10.909 294.617V327.539M10.909 294.617H43.847M10.909 327.539H43.847M10.909 327.539V360.461M43.847 294.617V327.539M43.847 294.617H76.786M43.847 327.539H76.786M43.847 327.539V360.461M76.786 294.617V327.539M76.786 294.617H109.725M76.786 327.539H109.725M76.786 327.539V360.461M109.725 294.617V327.539M109.725 294.617H142.664M109.725 327.539H142.664M109.725 327.539V360.461H76.786M142.664 294.617V327.539M142.664 294.617H175.603M142.664 327.539H175.603M175.603 294.617V327.539M175.603 327.539H208.542M208.542 327.539H241.481M-680.808 360.461H-647.869M-647.869 360.461H-614.93M-614.93 360.461H-581.991M-581.991 360.461H-549.053M-549.053 360.461H-516.114M-516.114 360.461H-483.175M-483.175 360.461H-450.236M-450.236 360.461H-417.297M-417.297 360.461H-384.358M-384.358 360.461H-351.419M-351.419 360.461H-318.48M-318.48 360.461H-285.541M-285.541 360.461H-252.603M-252.603 360.461H-219.664M-219.664 360.461H-186.725M-186.725 360.461H-153.786M-153.786 360.461H-120.847M-120.847 360.461H-87.908M-87.908 360.461H-54.969M-54.969 360.461H-22.03M-22.03 360.461H10.909M10.909 360.461H43.847M43.847 360.461H76.786" stroke="#2B2B2B" stroke-width="0.67" stroke-miterlimit="10"/>
<path d="M175.603 327.539H142.664V360.461M175.603 327.539V360.461M175.603 327.539H208.542M175.603 360.461H142.664M175.603 360.461H208.542M175.603 360.461V393.383M142.664 360.461H109.725M142.664 360.461V393.383M208.542 327.539V360.461M208.542 327.539H241.481M208.542 360.461H241.481M208.542 360.461V393.383M241.481 327.539V360.461M241.481 327.539H274.42V360.461M241.481 360.461H274.42M241.481 360.461V393.383M274.42 360.461V393.383M-680.808 360.461H-713.747V393.383M-680.808 360.461V393.383M-680.808 360.461H-647.869M-680.808 393.383H-713.747M-680.808 393.383H-647.869M-680.808 393.383V426.304M-713.747 393.383V426.304M-647.869 360.461V393.383M-647.869 360.461H-614.93M-647.869 393.383H-614.93M-647.869 393.383V426.304M-614.93 360.461V393.383M-614.93 360.461H-581.991M-614.93 393.383H-581.991M-614.93 393.383V426.304M-581.991 360.461V393.383M-581.991 360.461H-549.053M-581.991 393.383H-549.053M-581.991 393.383V426.304M-549.053 360.461V393.383M-549.053 360.461H-516.114M-549.053 393.383H-516.114M-549.053 393.383V426.304M-516.114 360.461V393.383M-516.114 360.461H-483.175M-516.114 393.383H-483.175M-516.114 393.383V426.304M-483.175 360.461V393.383M-483.175 360.461H-450.236M-483.175 393.383H-450.236M-483.175 393.383V426.304M-450.236 360.461V393.383M-450.236 360.461H-417.297M-450.236 393.383H-417.297M-450.236 393.383V426.304M-417.297 360.461V393.383M-417.297 360.461H-384.358M-417.297 393.383H-384.358M-417.297 393.383V426.304M-384.358 360.461V393.383M-384.358 360.461H-351.419M-384.358 393.383H-351.419M-384.358 393.383V426.304M-351.419 360.461V393.383M-351.419 360.461H-318.48M-351.419 393.383H-318.48M-351.419 393.383V426.304M-318.48 360.461V393.383M-318.48 360.461H-285.541M-318.48 393.383H-285.541M-318.48 393.383V426.304M-285.541 360.461V393.383M-285.541 360.461H-252.603M-285.541 393.383H-252.603M-285.541 393.383V426.304M-252.603 360.461V393.383M-252.603 360.461H-219.664M-252.603 393.383H-219.664M-252.603 393.383V426.304M-219.664 360.461V393.383M-219.664 360.461H-186.725M-219.664 393.383H-186.725M-219.664 393.383V426.304M-186.725 360.461V393.383M-186.725 360.461H-153.786M-186.725 393.383H-153.786M-186.725 393.383V426.304M-153.786 360.461V393.383M-153.786 360.461H-120.847M-153.786 393.383H-120.847M-153.786 393.383V426.304M-120.847 360.461V393.383M-120.847 360.461H-87.908M-120.847 393.383H-87.908M-120.847 393.383V426.304M-87.908 360.461V393.383M-87.908 360.461H-54.969M-87.908 393.383H-54.969M-87.908 393.383V426.304M-54.969 360.461V393.383M-54.969 360.461H-22.03M-54.969 393.383H-22.03M-54.969 393.383V426.304M-22.03 360.461V393.383M-22.03 360.461H10.909M-22.03 393.383H10.909M-22.03 393.383V426.304M10.909 360.461V393.383M10.909 360.461H43.847M10.909 393.383H43.847M10.909 393.383V426.304M43.847 360.461V393.383M43.847 360.461H76.786M43.847 393.383H76.786M43.847 393.383V426.304M76.786 360.461V393.383M76.786 360.461H109.725M76.786 393.383H109.725M76.786 393.383V426.304M109.725 360.461V393.383M109.725 393.383H142.664M109.725 393.383V426.304M142.664 393.383H175.603M142.664 393.383V426.304M175.603 393.383H208.542M175.603 393.383V426.304M208.542 393.383H241.481M208.542 393.383V426.304M241.481 393.383H274.42M241.481 393.383V426.304M274.42 393.383V426.304M-680.808 426.304H-713.747M-680.808 426.304H-647.869M-680.808 426.304V459.226M-713.747 426.304V459.226M-647.869 426.304H-614.93M-647.869 426.304V459.226M-614.93 426.304H-581.991M-614.93 426.304V459.226M-581.991 426.304H-549.053M-581.991 426.304V459.226M-549.053 426.304H-516.114M-549.053 426.304V459.226M-516.114 426.304H-483.175M-516.114 426.304V459.226M-483.175 426.304H-450.236M-483.175 426.304V459.226M-450.236 426.304H-417.297M-450.236 426.304V459.226M-417.297 426.304H-384.358M-417.297 426.304V459.226M-384.358 426.304H-351.419M-384.358 426.304V459.226M-351.419 426.304H-318.48M-351.419 426.304V459.226M-318.48 426.304H-285.541M-318.48 426.304V459.226M-285.541 426.304H-252.603M-285.541 426.304V459.226M-252.603 426.304H-219.664M-252.603 426.304V459.226M-219.664 426.304H-186.725M-219.664 426.304V459.226M-186.725 426.304H-153.786M-186.725 426.304V459.226M-153.786 426.304H-120.847M-153.786 426.304V459.226M-120.847 426.304H-87.908M-120.847 426.304V459.226M-87.908 426.304H-54.969M-87.908 426.304V459.226M-54.969 426.304H-22.03M-54.969 426.304V459.226M-22.03 426.304H10.909M-22.03 426.304V459.226M10.909 426.304H43.847M10.909 426.304V459.226M43.847 426.304H76.786M43.847 426.304V459.226M76.786 426.304H109.725M76.786 426.304V459.226M109.725 426.304H142.664M109.725 426.304V459.226M142.664 426.304H175.603M142.664 426.304V459.226M175.603 426.304H208.542M175.603 426.304V459.226M208.542 426.304H241.481M208.542 426.304V459.226M241.481 426.304H274.42M241.481 426.304V459.226M274.42 426.304V459.226M-680.808 459.226H-713.747M-680.808 459.226H-647.869M-680.808 459.226V492.148M-713.747 459.226V492.148M-647.869 459.226H-614.93M-647.869 459.226V492.148M-614.93 459.226H-581.991M-614.93 459.226V492.148M-581.991 459.226H-549.053M-581.991 459.226V492.148M-549.053 459.226H-516.114M-549.053 459.226V492.148M-516.114 459.226H-483.175M-516.114 459.226V492.148M-483.175 459.226H-450.236M-483.175 459.226V492.148M-450.236 459.226H-417.297M-450.236 459.226V492.148M-417.297 459.226H-384.358M-417.297 459.226V492.148M-384.358 459.226H-351.419M-384.358 459.226V492.148M-351.419 459.226H-318.48M-351.419 459.226V492.148M-318.48 459.226H-285.541M-318.48 459.226V492.148M-285.541 459.226H-252.603M-285.541 459.226V492.148M-252.603 459.226H-219.664M-252.603 459.226V492.148M-219.664 459.226H-186.725M-219.664 459.226V492.148M-186.725 459.226H-153.786M-186.725 459.226V492.148M-153.786 459.226H-120.847M-153.786 459.226V492.148M-120.847 459.226H-87.908M-120.847 459.226V492.148M-87.908 459.226H-54.969M-87.908 459.226V492.148M-54.969 459.226H-22.03M-54.969 459.226V492.148M-22.03 459.226H10.909M-22.03 459.226V492.148M10.909 459.226H43.847M10.909 459.226V492.148M43.847 459.226H76.786M43.847 459.226V492.148M76.786 459.226H109.725M76.786 459.226V492.148M109.725 459.226H142.664M109.725 459.226V492.148M142.664 459.226H175.603M142.664 459.226V492.148M175.603 459.226H208.542M175.603 459.226V492.148M208.542 459.226H241.481M208.542 459.226V492.148M241.481 459.226H274.42M241.481 459.226V492.148M274.42 459.226V492.148M-680.808 492.148H-713.747M-680.808 492.148H-647.869M-680.808 492.148V525.07M-713.747 492.148V525.07M-647.869 492.148H-614.93M-647.869 492.148V525.07M-614.93 492.148H-581.991M-614.93 492.148V525.07M-581.991 492.148H-549.053M-581.991 492.148V525.07M-549.053 492.148H-516.114M-549.053 492.148V525.07M-516.114 492.148H-483.175M-516.114 492.148V525.07M-483.175 492.148H-450.236M-483.175 492.148V525.07M-450.236 492.148H-417.297M-450.236 492.148V525.07M-417.297 492.148H-384.358M-417.297 492.148V525.07M-384.358 492.148H-351.419M-384.358 492.148V525.07M-351.419 492.148H-318.48M-351.419 492.148V525.07M-318.48 492.148H-285.541M-318.48 492.148V525.07M-285.541 492.148H-252.603M-285.541 492.148V525.07M-252.603 492.148H-219.664M-252.603 492.148V525.07M-219.664 492.148H-186.725M-219.664 492.148V525.07M-186.725 492.148H-153.786M-186.725 492.148V525.07M-153.786 492.148H-120.847M-153.786 492.148V525.07M-120.847 492.148H-87.908M-120.847 492.148V525.07M-87.908 492.148H-54.969M-87.908 492.148V525.07M-54.969 492.148H-22.03M-54.969 492.148V525.07M-22.03 492.148H10.909M-22.03 492.148V525.07M10.909 492.148H43.847M10.909 492.148V525.07M43.847 492.148H76.786M43.847 492.148V525.07M76.786 492.148H109.725M76.786 492.148V525.07M109.725 492.148H142.664M109.725 492.148V525.07M142.664 492.148H175.603M142.664 492.148V525.07M175.603 492.148H208.542M175.603 492.148V525.07M208.542 492.148H241.481M208.542 492.148V525.07M241.481 492.148H274.42M241.481 492.148V525.07M274.42 492.148V525.07M-680.808 525.07H-713.747M-680.808 525.07H-647.869M-680.808 525.07V557.992M-713.747 525.07V557.992M-647.869 525.07H-614.93M-647.869 525.07V557.992M-614.93 525.07H-581.991M-614.93 525.07V557.992M-581.991 525.07H-549.053M-581.991 525.07V557.992M-549.053 525.07H-516.114M-549.053 525.07V557.992M-516.114 525.07H-483.175M-516.114 525.07V557.992M-483.175 525.07H-450.236M-483.175 525.07V557.992M-450.236 525.07H-417.297M-450.236 525.07V557.992M-417.297 525.07H-384.358M-417.297 525.07V557.992M-384.358 525.07H-351.419M-384.358 525.07V557.992M-351.419 525.07H-318.48M-351.419 525.07V557.992M-318.48 525.07H-285.541M-318.48 525.07V557.992M-285.541 525.07H-252.603M-285.541 525.07V557.992M-252.603 525.07H-219.664M-252.603 525.07V557.992M-219.664 525.07H-186.725M-219.664 525.07V557.992M-186.725 525.07H-153.786M-186.725 525.07V557.992M-153.786 525.07H-120.847M-153.786 525.07V557.992M-120.847 525.07H-87.908M-120.847 525.07V557.992M-87.908 525.07H-54.969M-87.908 525.07V557.992M-54.969 525.07H-22.03M-54.969 525.07V557.992M-22.03 525.07H10.909M-22.03 525.07V557.992M10.909 525.07H43.847M10.909 525.07V557.992M43.847 525.07H76.786M43.847 525.07V557.992M76.786 525.07H109.725M76.786 525.07V557.992M109.725 525.07H142.664M109.725 525.07V557.992M142.664 525.07H175.603M142.664 525.07V557.992M175.603 525.07H208.542M175.603 525.07V557.992M208.542 525.07H241.481M208.542 525.07V557.992M241.481 525.07H274.42M241.481 525.07V557.992M274.42 525.07V557.992M-680.808 557.992H-713.747M-680.808 557.992H-647.869M-680.808 557.992V590.914M-713.747 557.992V590.914M-647.869 557.992H-614.93M-647.869 557.992V590.914M-614.93 557.992H-581.991M-614.93 557.992V590.914M-581.991 557.992H-549.053M-581.991 557.992V590.914M-549.053 557.992H-516.114M-549.053 557.992V590.914M-516.114 557.992H-483.175M-516.114 557.992V590.914M-483.175 557.992H-450.236M-483.175 557.992V590.914M-450.236 557.992H-417.297M-450.236 557.992V590.914M-417.297 557.992H-384.358M-417.297 557.992V590.914M-384.358 557.992H-351.419M-384.358 557.992V590.914M-351.419 557.992H-318.48M-351.419 557.992V590.914M-318.48 557.992H-285.541M-318.48 557.992V590.914M-285.541 557.992H-252.603M-285.541 557.992V590.914M-252.603 557.992H-219.664M-252.603 557.992V590.914M-219.664 557.992H-186.725M-219.664 557.992V590.914M-186.725 557.992H-153.786M-186.725 557.992V590.914M-153.786 557.992H-120.847M-153.786 557.992V590.914M-120.847 557.992H-87.908M-120.847 557.992V590.914M-87.908 557.992H-54.969M-87.908 557.992V590.914M-54.969 557.992H-22.03M-54.969 557.992V590.914M-22.03 557.992H10.909M-22.03 557.992V590.914M10.909 557.992H43.847M10.909 557.992V590.914M43.847 557.992H76.786M43.847 557.992V590.914M76.786 557.992H109.725M76.786 557.992V590.914M109.725 557.992H142.664M109.725 557.992V590.914M142.664 557.992H175.603M142.664 557.992V590.914M175.603 557.992H208.542M175.603 557.992V590.914M208.542 557.992H241.481M208.542 557.992V590.914M241.481 557.992H274.42M241.481 557.992V590.914M274.42 557.992V590.914M-680.808 590.914H-713.747M-680.808 590.914H-647.869M-680.808 590.914V623.836M-713.747 590.914V623.836M-647.869 590.914H-614.93M-647.869 590.914V623.836M-614.93 590.914H-581.991M-614.93 590.914V623.836M-581.991 590.914H-549.053M-581.991 590.914V623.836M-549.053 590.914H-516.114M-549.053 590.914V623.836M-516.114 590.914H-483.175M-516.114 590.914V623.836M-483.175 590.914H-450.236M-483.175 590.914V623.836M-450.236 590.914H-417.297M-450.236 590.914V623.836M-417.297 590.914H-384.358M-417.297 590.914V623.836M-384.358 590.914H-351.419M-384.358 590.914V623.836M-351.419 590.914H-318.48M-351.419 590.914V623.836M-318.48 590.914H-285.541M-318.48 590.914V623.836M-285.541 590.914H-252.603M-285.541 590.914V623.836M-252.603 590.914H-219.664M-252.603 590.914V623.836M-219.664 590.914H-186.725M-219.664 590.914V623.836M-186.725 590.914H-153.786M-186.725 590.914V623.836M-153.786 590.914H-120.847M-153.786 590.914V623.836M-120.847 590.914H-87.908M-120.847 590.914V623.836M-87.908 590.914H-54.969M-87.908 590.914V623.836M-54.969 590.914H-22.03M-54.969 590.914V623.836M-22.03 590.914H10.909M-22.03 590.914V623.836M10.909 590.914H43.847M10.909 590.914V623.836M43.847 590.914H76.786M43.847 590.914V623.836M76.786 590.914H109.725M76.786 590.914V623.836M109.725 590.914H142.664M109.725 590.914V623.836M142.664 590.914H175.603M142.664 590.914V623.836M175.603 590.914H208.542M175.603 590.914V623.836M208.542 590.914H241.481M208.542 590.914V623.836M241.481 590.914H274.42M241.481 590.914V623.836M274.42 590.914V623.836M-680.808 623.836H-713.747M-680.808 623.836H-647.869M-680.808 623.836V656.758M-713.747 623.836V656.758M-647.869 623.836H-614.93M-647.869 623.836V656.758M-614.93 623.836H-581.991M-614.93 623.836V656.758M-581.991 623.836H-549.053M-581.991 623.836V656.758M-549.053 623.836H-516.114M-549.053 623.836V656.758M-516.114 623.836H-483.175M-516.114 623.836V656.758M-483.175 623.836H-450.236M-483.175 623.836V656.758M-450.236 623.836H-417.297M-450.236 623.836V656.758M-417.297 623.836H-384.358M-417.297 623.836V656.758M-384.358 623.836H-351.419M-384.358 623.836V656.758M-351.419 623.836H-318.48M-351.419 623.836V656.758M-318.48 623.836H-285.541M-318.48 623.836V656.758M-285.541 623.836H-252.603M-285.541 623.836V656.758M-252.603 623.836H-219.664M-252.603 623.836V656.758M-219.664 623.836H-186.725M-219.664 623.836V656.758M-186.725 623.836H-153.786M-186.725 623.836V656.758M-153.786 623.836H-120.847M-153.786 623.836V656.758M-120.847 623.836H-87.908M-120.847 623.836V656.758M-87.908 623.836H-54.969M-87.908 623.836V656.758M-54.969 623.836H-22.03M-54.969 623.836V656.758M-22.03 623.836H10.909M-22.03 623.836V656.758M10.909 623.836H43.847M10.909 623.836V656.758M43.847 623.836H76.786M43.847 623.836V656.758M76.786 623.836H109.725M76.786 623.836V656.758M109.725 623.836H142.664M109.725 623.836V656.758M142.664 623.836H175.603M142.664 623.836V656.758M175.603 623.836H208.542M175.603 623.836V656.758M208.542 623.836H241.481M208.542 623.836V656.758M241.481 623.836H274.42M241.481 623.836V656.758M274.42 623.836V656.758M-680.808 656.758H-713.747M-680.808 656.758H-647.869M-680.808 656.758V689.679M-713.747 656.758V689.679H-680.808M-647.869 656.758H-614.93M-647.869 656.758V689.679M-614.93 656.758H-581.991M-614.93 656.758V689.679M-581.991 656.758H-549.053M-581.991 656.758V689.679M-549.053 656.758H-516.114M-549.053 656.758V689.679M-516.114 656.758H-483.175M-516.114 656.758V689.679M-483.175 656.758H-450.236M-483.175 656.758V689.679M-450.236 656.758H-417.297M-450.236 656.758V689.679M-417.297 656.758H-384.358M-417.297 656.758V689.679M-384.358 656.758H-351.419M-384.358 656.758V689.679M-351.419 656.758H-318.48M-351.419 656.758V689.679M-318.48 656.758H-285.541M-318.48 656.758V689.679M-285.541 656.758H-252.603M-285.541 656.758V689.679M-252.603 656.758H-219.664M-252.603 656.758V689.679M-219.664 656.758H-186.725M-219.664 656.758V689.679M-186.725 656.758H-153.786M-186.725 656.758V689.679M-153.786 656.758H-120.847M-153.786 656.758V689.679M-120.847 656.758H-87.908M-120.847 656.758V689.679M-87.908 656.758H-54.969M-87.908 656.758V689.679M-54.969 656.758H-22.03M-54.969 656.758V689.679M-22.03 656.758H10.909M-22.03 656.758V689.679M10.909 656.758H43.847M10.909 656.758V689.679M43.847 656.758H76.786M43.847 656.758V689.679M76.786 656.758H109.725M76.786 656.758V689.679M109.725 656.758H142.664M109.725 656.758V689.679M142.664 656.758H175.603M142.664 656.758V689.679M175.603 656.758H208.542M175.603 656.758V689.679M208.542 656.758H241.481M208.542 656.758V689.679M241.481 656.758H274.42M241.481 656.758V689.679M274.42 656.758V689.679H241.481M-680.808 689.679H-647.869M-647.869 689.679H-614.93M-614.93 689.679H-581.991M-581.991 689.679H-549.053M-549.053 689.679H-516.114M-516.114 689.679H-483.175M-483.175 689.679H-450.236M-450.236 689.679H-417.297M-417.297 689.679H-384.358M-384.358 689.679H-351.419M-351.419 689.679H-318.48M-318.48 689.679H-285.541M-285.541 689.679H-252.603M-252.603 689.679H-219.664M-219.664 689.679H-186.725M-186.725 689.679H-153.786M-153.786 689.679H-120.847M-120.847 689.679H-87.908M-87.908 689.679H-54.969M-54.969 689.679H-22.03M-22.03 689.679H10.909M10.909 689.679H43.847M43.847 689.679H76.786M76.786 689.679H109.725M109.725 689.679H142.664M142.664 689.679H175.603M175.603 689.679H208.542M208.542 689.679H241.481" stroke="#2B2B2B" stroke-width="0.67" stroke-miterlimit="10"/>
</g>
</g>
</g>
<defs>
<clipPath id="clip0_2085_7795">
<rect width="1208" height="400" fill="white" transform="translate(-944)"/>
</clipPath>
<clipPath id="clip1_2085_7795">
<rect width="968" height="688" fill="white" transform="translate(-704)"/>
</clipPath>
<clipPath id="clip2_2085_7795">
<rect width="968" height="688" fill="white" transform="translate(-704)"/>
</clipPath>
</defs>
</svg>
